<svg viewBox="0 0 694 132" fill="none" xmlns="http://www.w3.org/2000/svg">
<path d="M188.577 87.3675C188.577 93.9714 186.898 99.3524 183.612 103.371C180.325 107.354 175.605 109.311 169.171 109.311C163.262 109.311 158.997 107.389 156.06 103.371C153.088 99.3175 151.549 92.6786 151.549 83.6638V46.2417H135.746V87.682C135.746 99.4572 138.403 108.507 143.648 114.517C148.927 120.562 155.815 123.637 164.102 123.637C168.018 123.637 171.654 122.938 174.941 121.505C178.227 120.073 181.024 118.081 183.262 115.53C185.465 113.014 187.353 110.184 188.856 107.074L189.031 106.725C188.227 110.848 187.493 115.6 186.758 120.946L186.549 122.414H204.241V46.2417H188.507V87.3326L188.577 87.3675Z" fill="currentColor"/>
<path d="M256.407 45.0915C244.344 45.0915 234.589 48.7254 227.387 55.8534C220.219 63.0163 216.548 72.5902 216.548 84.3654C216.548 96.1406 220.184 105.715 227.387 112.878C234.589 120.04 244.344 123.639 256.407 123.639C268.47 123.639 278.225 120.006 285.427 112.878C292.63 105.715 296.301 96.1406 296.301 84.3654C296.301 72.5902 292.63 63.0163 285.427 55.8534C278.225 48.6904 268.435 45.0915 256.407 45.0915ZM273.574 101.766C269.134 106.274 263.505 108.475 256.407 108.475C249.309 108.475 243.68 106.274 239.239 101.766C234.869 97.3287 232.631 91.4585 232.631 84.3654C232.631 77.2724 234.869 71.4372 239.239 66.9647C243.61 62.5272 249.379 60.256 256.407 60.256C263.435 60.256 269.204 62.5272 273.574 66.9647C277.945 71.4372 280.183 77.2724 280.183 84.3654C280.183 91.4585 277.98 97.2937 273.574 101.766Z" fill="currentColor"/>
<path d="M308.505 75.802V122.449H324.309V78.8768C324.309 71.644 325.497 66.6823 327.875 64.0967C330.218 61.546 334.343 60.2531 340.217 60.2531H350.287V46.2417H337.42C318.26 46.2417 308.54 56.165 308.54 75.7671L308.505 75.802Z" fill="currentColor"/>
<path d="M415.25 87.3675C415.25 93.9714 413.572 99.3524 410.285 103.371C406.998 107.354 402.278 109.311 395.845 109.311C389.936 109.311 385.67 107.389 382.733 103.371C379.761 99.3175 378.223 92.6786 378.223 83.6638V46.2417H362.419V87.682C362.419 99.4572 365.076 108.507 370.321 114.517C375.6 120.562 382.488 123.637 390.775 123.637C394.691 123.637 398.327 122.938 401.614 121.505C404.901 120.073 407.698 118.081 409.935 115.53C412.138 113.014 414.026 110.184 415.53 107.074L415.704 106.725C414.9 110.848 414.166 115.6 413.432 120.946L413.222 122.414H430.914V46.2417H415.18V87.3326L415.25 87.3675Z" fill="currentColor"/>
<path d="M545.701 52.9531C543.359 50.2626 540.736 48.2361 537.939 46.9782C535.107 45.7203 532.03 45.0564 528.709 45.0564C521.891 45.0564 516.191 47.6421 511.786 52.7435C508.674 56.3424 506.262 60.7101 504.513 65.8115C504.513 61.1294 503.255 56.9015 500.737 53.2326C496.996 47.8168 491.192 45.0564 483.395 45.0564C476.297 45.0564 470.563 47.6071 466.332 52.6387C464.374 54.9797 462.696 57.6702 461.333 60.7101C462.032 56.9364 462.661 52.6037 463.291 47.7469L463.465 46.2793H445.773V122.451H461.577V81.3603C461.577 74.7215 463.011 69.3056 465.878 65.2524C468.675 61.3041 472.556 59.3823 477.801 59.3823C482.311 59.3823 485.668 61.1294 487.94 64.6934C490.318 68.3972 491.542 75.0011 491.542 84.3304V122.416H507.346V81.3254C507.346 74.6866 508.779 69.2707 511.611 65.2175C514.373 61.2691 518.254 59.3474 523.499 59.3474C528.044 59.3474 531.366 61.0944 533.674 64.6584C536.051 68.3622 537.275 74.9661 537.275 84.2954V122.381H553.079V80.2772C553.079 74.0926 552.414 68.6068 551.156 64.0295C549.862 59.3474 548.009 55.6087 545.666 52.9182L545.701 52.9531Z" fill="currentColor"/>
<path d="M70.9567 73.5696L40.0833 72.8358L118.054 122.522L121.585 118.888L69.1036 42.7514L70.9567 73.5696Z" fill="currentColor"/>
<path d="M65.5372 12C34.3491 12 9 37.3673 9 68.5C9 99.6326 34.3841 125 65.5372 125C75.4671 125 84.7326 122.379 92.8443 117.872L94.103 117.208L78.8936 107.494C74.6979 108.927 70.2224 109.766 65.5372 109.766C59.5234 109.766 53.8592 108.473 48.6844 106.167C47.8103 105.782 46.9362 105.363 46.0971 104.909C45.188 104.42 44.3139 103.895 43.4748 103.336C39.3839 100.751 35.7826 97.4663 32.8456 93.6227C30.9576 91.1769 29.3142 88.4864 28.0206 85.6562C27.601 84.7127 27.2513 83.7344 26.8667 82.791C25.678 79.6463 24.8738 76.3268 24.4892 72.8676C24.3143 71.4351 24.2095 70.0025 24.2095 68.5C24.2095 66.9975 24.3144 65.495 24.4542 64.0275C26.4821 45.2641 41.1671 30.2743 59.7681 27.6886C61.6562 27.4091 63.5792 27.2344 65.5023 27.2344C66.5861 27.2344 67.6351 27.3043 68.684 27.4091C89.9772 29.0513 106.795 46.8364 106.795 68.5349C106.795 72.5881 106.131 76.4666 105.012 80.1704L115.291 95.0903C119.557 87.1586 122.039 78.1438 122.039 68.5349C122.039 37.3673 96.6554 12.0349 65.5023 12.0349L65.5372 12Z" fill="currentColor"/>
<path d="M564.965 52V8.36364H571.336V24.5781H571.719C572.089 23.8963 572.621 23.108 573.317 22.2131C574.013 21.3182 574.979 20.5369 576.215 19.8693C577.451 19.1875 579.084 18.8466 581.116 18.8466C583.758 18.8466 586.116 19.5142 588.19 20.8494C590.263 22.1847 591.89 24.1094 593.069 26.6236C594.262 29.1378 594.859 32.1634 594.859 35.7003C594.859 39.2372 594.269 42.2699 593.09 44.7983C591.911 47.3125 590.292 49.2514 588.232 50.6151C586.173 51.9645 583.822 52.6392 581.18 52.6392C579.191 52.6392 577.565 52.3054 576.3 51.6378C575.05 50.9702 574.07 50.1889 573.36 49.294C572.65 48.3991 572.103 47.6037 571.719 46.9077H571.187V52H564.965ZM571.208 35.6364C571.208 37.9375 571.542 39.9545 572.209 41.6875C572.877 43.4205 573.843 44.777 575.107 45.7571C576.371 46.723 577.92 47.206 579.752 47.206C581.655 47.206 583.246 46.7017 584.525 45.6932C585.803 44.6705 586.769 43.2855 587.423 41.5384C588.09 39.7912 588.424 37.8239 588.424 35.6364C588.424 33.4773 588.097 31.5384 587.444 29.8196C586.805 28.1009 585.839 26.7443 584.546 25.75C583.268 24.7557 581.67 24.2585 579.752 24.2585C577.905 24.2585 576.343 24.7344 575.065 25.6861C573.8 26.6378 572.842 27.9659 572.188 29.6705C571.535 31.375 571.208 33.3636 571.208 35.6364ZM614.917 52.6605C611.693 52.6605 608.916 51.9716 606.587 50.5938C604.271 49.2017 602.481 47.2486 601.217 44.7344C599.967 42.206 599.342 39.2443 599.342 35.8494C599.342 32.4972 599.967 29.5426 601.217 26.9858C602.481 24.429 604.243 22.4332 606.501 20.9986C608.774 19.5639 611.43 18.8466 614.47 18.8466C616.317 18.8466 618.106 19.152 619.839 19.7628C621.572 20.3736 623.128 21.3324 624.506 22.6392C625.883 23.946 626.97 25.6435 627.765 27.7315C628.561 29.8054 628.959 32.3267 628.959 35.2955V37.554H602.943V32.7812H622.716C622.716 31.1051 622.375 29.6207 621.693 28.3281C621.011 27.0213 620.052 25.9915 618.817 25.2386C617.595 24.4858 616.16 24.1094 614.513 24.1094C612.723 24.1094 611.16 24.5497 609.825 25.4304C608.504 26.2969 607.481 27.4332 606.757 28.8395C606.047 30.2315 605.692 31.7443 605.692 33.3778V37.1065C605.692 39.294 606.075 41.1548 606.842 42.6889C607.623 44.223 608.71 45.3949 610.102 46.2045C611.494 47 613.121 47.3977 614.981 47.3977C616.189 47.3977 617.29 47.2273 618.284 46.8864C619.278 46.5312 620.138 46.0057 620.862 45.3097C621.587 44.6136 622.14 43.7543 622.524 42.7315L628.554 43.8182C628.071 45.5937 627.204 47.1491 625.954 48.4844C624.719 49.8054 623.163 50.8352 621.288 51.5739C619.427 52.2983 617.304 52.6605 614.917 52.6605ZM650.104 19.2727V24.3864H632.228V19.2727H650.104ZM637.022 11.4318H643.393V42.3906C643.393 43.6264 643.577 44.5568 643.947 45.1818C644.316 45.7926 644.792 46.2116 645.374 46.4389C645.971 46.652 646.617 46.7585 647.313 46.7585C647.824 46.7585 648.272 46.723 648.655 46.652C649.039 46.581 649.337 46.5241 649.55 46.4815L650.701 51.7443C650.331 51.8864 649.806 52.0284 649.124 52.1705C648.442 52.3267 647.59 52.4119 646.567 52.4261C644.891 52.4545 643.329 52.1562 641.88 51.5312C640.431 50.9062 639.259 49.9403 638.364 48.6335C637.469 47.3267 637.022 45.6861 637.022 43.7116V11.4318ZM665.476 52.7244C663.402 52.7244 661.527 52.3409 659.851 51.5739C658.174 50.7926 656.846 49.6634 655.866 48.1861C654.9 46.7088 654.417 44.8977 654.417 42.7528C654.417 40.9062 654.772 39.3864 655.483 38.1932C656.193 37 657.152 36.0554 658.359 35.3594C659.566 34.6634 660.916 34.1378 662.407 33.7827C663.899 33.4276 665.419 33.1577 666.967 32.973C668.927 32.7457 670.518 32.5611 671.74 32.419C672.961 32.2628 673.849 32.0142 674.403 31.6733C674.957 31.3324 675.234 30.7784 675.234 30.0114V29.8622C675.234 28.0014 674.709 26.5597 673.657 25.5369C672.62 24.5142 671.072 24.0028 669.012 24.0028C666.868 24.0028 665.177 24.4787 663.941 25.4304C662.72 26.3679 661.875 27.4119 661.406 28.5625L655.419 27.1989C656.129 25.2102 657.166 23.6051 658.53 22.3835C659.907 21.1477 661.491 20.2528 663.281 19.6989C665.071 19.1307 666.953 18.8466 668.927 18.8466C670.234 18.8466 671.619 19.0028 673.082 19.3153C674.559 19.6136 675.937 20.1676 677.216 20.9773C678.508 21.7869 679.566 22.9446 680.39 24.4503C681.214 25.9418 681.626 27.8807 681.626 30.267V52H675.405V47.5256H675.149C674.737 48.3494 674.119 49.1591 673.295 49.9545C672.471 50.75 671.413 51.4105 670.12 51.9361C668.828 52.4616 667.28 52.7244 665.476 52.7244ZM666.861 47.6108C668.622 47.6108 670.128 47.2628 671.378 46.5668C672.642 45.8707 673.601 44.9616 674.254 43.8395C674.922 42.7031 675.255 41.4886 675.255 40.196V35.9773C675.028 36.2045 674.588 36.4176 673.934 36.6165C673.295 36.8011 672.564 36.9645 671.74 37.1065C670.916 37.2344 670.113 37.3551 669.332 37.4688C668.551 37.5682 667.897 37.6534 667.372 37.7244C666.136 37.8807 665.007 38.1435 663.984 38.5128C662.976 38.8821 662.166 39.4148 661.555 40.1108C660.959 40.7926 660.66 41.7017 660.66 42.8381C660.66 44.4148 661.243 45.608 662.407 46.4176C663.572 47.2131 665.057 47.6108 666.861 47.6108Z" fill="currentColor"/>
</svg>
